<svg width="16" height="8" fill="none" xmlns="http://www.w3.org/2000/svg"><path d="M3.2 4c0 .27.022.537.065.8H.3a.3.3 0 0 1-.3-.3v-1a.3.3 0 0 1 .3-.3h2.965c-.042.262-.065.53-.065.8Zm12.5-.8h-2.965a5.006 5.006 0 0 1 0 1.6H15.7a.3.3 0 0 0 .3-.3v-1a.3.3 0 0 0-.3-.3ZM8 1.2a2.79 2.79 0 0 0-1.98.82A2.78 2.78 0 0 0 5.2 4c0 .747.29 1.45.82 1.98A2.79 2.79 0 0 0 8 6.8a2.79 2.79 0 0 0 1.98-.82c.53-.53.82-1.233.82-1.98 0-.748-.29-1.45-.82-1.98A2.79 2.79 0 0 0 8 1.2ZM8 0c2.21 0 4 1.79 4 4s-1.79 4-4 4-4-1.79-4-4 1.79-4 4-4Z" fill="#ccc"/></svg>