<svg width="12" height="12" fill="none" xmlns="http://www.w3.org/2000/svg"><path d="m11.34 7.442-1.03-.595a4.662 4.662 0 0 0 0-1.699l1.03-.595a.292.292 0 0 0 .134-.338 6.026 6.026 0 0 0-1.324-2.29.291.291 0 0 0-.358-.055l-1.03.595a4.566 4.566 0 0 0-1.471-.849V.428a.29.29 0 0 0-.228-.283 6.082 6.082 0 0 0-2.641 0 .29.29 0 0 0-.228.283v1.19a4.71 4.71 0 0 0-1.47.85l-1.03-.595a.287.287 0 0 0-.357.055A5.99 5.99 0 0 0 .013 4.217a.29.29 0 0 0 .134.339l1.03.595a4.66 4.66 0 0 0 0 1.698l-1.03.595a.292.292 0 0 0-.134.34c.269.86.726 1.64 1.324 2.288.092.099.242.123.358.055l1.03-.595c.434.373.932.66 1.472.85v1.19a.29.29 0 0 0 .227.283 6.082 6.082 0 0 0 2.642 0 .29.29 0 0 0 .227-.283v-1.19a4.71 4.71 0 0 0 1.471-.85l1.03.595a.287.287 0 0 0 .359-.055 5.989 5.989 0 0 0 1.323-2.289.299.299 0 0 0-.135-.341Zm-5.598.491a1.938 1.938 0 0 1-1.935-1.935c0-1.067.869-1.936 1.935-1.936 1.067 0 1.936.869 1.936 1.936a1.938 1.938 0 0 1-1.936 1.935Z" fill="#111"/></svg>